<svg width="16" height="16" viewBox="0 0 16 16" fill="none" xmlns="http://www.w3.org/2000/svg">
<path fill-rule="evenodd" clip-rule="evenodd" d="M11.25 13C11.25 13.4142 11.5858 13.75 12 13.75C12.4142 13.75 12.75 13.4142 12.75 13V3C12.75 2.58579 12.4142 2.25 12 2.25C11.5858 2.25 11.25 2.58579 11.25 3V13ZM6.53033 10.5303C6.23743 10.8232 5.76256 10.8232 5.46967 10.5303C5.17677 10.2374 5.17678 9.76256 5.46967 9.46967L6.18932 8.75003H3C2.58579 8.75003 2.25 8.41424 2.25 8.00003C2.25 7.58581 2.58579 7.25003 3 7.25003H6.18936L5.46967 6.53033C5.17677 6.23743 5.17678 5.76256 5.46967 5.46967C5.76257 5.17677 6.23744 5.17678 6.53033 5.46967L8.53033 7.4697C8.67099 7.61036 8.75 7.80112 8.75 8.00003C8.75 8.19895 8.67098 8.38971 8.53033 8.53036L6.53033 10.5303Z" fill="white"/>
</svg>
